<svg width="6" height="14" viewBox="0 0 6 14" fill="none" xmlns="http://www.w3.org/2000/svg">
<path d="M4.9799 0.609942C5.1149 0.609942 5.2499 0.609942 5.5199 0.609942V2.63494C5.3849 2.63494 5.1149 2.63494 4.8449 2.63494C4.5749 2.63494 4.3049 2.63494 4.1699 2.76994C4.0349 2.90494 4.0349 3.03994 4.0349 3.35494C4.0349 3.62494 4.0349 3.80494 4.0349 4.07494H5.5199V5.78494H4.0349V13.2099H1.73991V5.73994H0.524902V4.02994H1.73991V3.44494C1.73991 2.45494 1.8749 1.73494 2.1449 1.41994C2.5499 0.834941 3.3599 0.564941 4.5749 0.564941C4.7099 0.609941 4.8449 0.609942 4.9799 0.609942Z" fill="#FBFBFB"/>
</svg>
