<!-- Generated by IcoMoon.io -->
<svg version="1.1" xmlns="http://www.w3.org/2000/svg" width="43" height="32" viewBox="0 0 43 32">
<path fill="#fbfbfb" d="M33.693 1c-2.040-0.12-6.24-0.24-12.6-0.24h-0.84c-6.12 0-10.2 0.12-12.24 0.36-2.76 0.24-4.68 0.96-5.76 1.92-0.96 0.84-1.68 2.4-1.92 4.44-0.12 1.32-0.24 4.080-0.24 8.28v0.6c0 3.96 0.12 6.72 0.36 8.040 0.36 1.92 0.96 3.36 2.16 4.2 1.2 0.96 3.24 1.56 6.12 1.8 2.040 0.12 6.24 0.24 12.6 0.24h0.84c6.12 0 10.2-0.12 12.24-0.36 2.76-0.24 4.68-0.96 5.76-1.92 0.96-0.84 1.68-2.4 1.92-4.44 0.12-1.32 0.24-4.080 0.24-8.28v-0.6c0-3.96-0.12-6.72-0.36-8.040-0.36-1.92-0.96-3.36-2.16-4.2-1.2-0.96-3.24-1.56-6.12-1.8zM29.013 15.76l-13.2 7.92v-15.84l13.2 7.92z"></path>
</svg>
