<svg width="16" height="12" viewBox="0 0 16 12" fill="none" xmlns="http://www.w3.org/2000/svg">
<path fill-rule="evenodd" clip-rule="evenodd" d="M12.6349 0.375156C11.8699 0.330156 10.2949 0.285156 7.90991 0.285156H7.59491C5.29991 0.285156 3.76993 0.330156 3.00493 0.420156C1.96993 0.510156 1.24991 0.780156 0.844907 1.14016C0.484907 1.45516 0.214918 2.04016 0.124918 2.80516C0.0799176 3.30016 0.0349121 4.33516 0.0349121 5.91016V6.13516C0.0349121 7.62016 0.0799066 8.65516 0.169907 9.15016C0.304907 9.87016 0.529929 10.4102 0.979929 10.7252C1.42993 11.0852 2.19492 11.3102 3.27492 11.4002C4.03992 11.4452 5.61492 11.4902 7.99992 11.4902H8.31492C10.6099 11.4902 12.1399 11.4452 12.9049 11.3552C13.9399 11.2652 14.6599 10.9952 15.0649 10.6352C15.4249 10.3202 15.6949 9.73516 15.7849 8.97016C15.8299 8.47516 15.8749 7.44016 15.8749 5.86516V5.64016C15.8749 4.15516 15.8299 3.12016 15.7399 2.62516C15.6049 1.90516 15.3799 1.36516 14.9299 1.05016C14.4799 0.690156 13.7149 0.465156 12.6349 0.375156ZM10.8799 5.91016L5.92993 8.88016V2.94016L10.8799 5.91016Z" fill="#FBFBFB"/>
</svg>
